<?xml version="1.0" encoding="UTF-8" standalone="no"?>
<!-- Created with Inkscape (http://www.inkscape.org/) -->

<svg
   xmlns:dc="http://purl.org/dc/elements/1.1/"
   xmlns:cc="http://creativecommons.org/ns#"
   xmlns:rdf="http://www.w3.org/1999/02/22-rdf-syntax-ns#"
   xmlns:svg="http://www.w3.org/2000/svg"
   xmlns="http://www.w3.org/2000/svg"
   xmlns:sodipodi="http://sodipodi.sourceforge.net/DTD/sodipodi-0.dtd"
   xmlns:inkscape="http://www.inkscape.org/namespaces/inkscape"
   width="418.73471"
   height="441.0625"
   id="svg2"
   version="1.1"
   inkscape:version="0.48.2 r9819"
   sodipodi:docname="crazyflie.svg">
  <defs
     id="defs4" />
  <sodipodi:namedview
     id="base"
     pagecolor="#ffffff"
     bordercolor="#666666"
     borderopacity="1.0"
     inkscape:pageopacity="0.0"
     inkscape:pageshadow="2"
     inkscape:zoom="1.3707346"
     inkscape:cx="316.08813"
     inkscape:cy="197.62621"
     inkscape:document-units="px"
     inkscape:current-layer="layer1"
     showgrid="false"
     fit-margin-top="0"
     fit-margin-left="0"
     fit-margin-right="0"
     fit-margin-bottom="0"
     inkscape:window-width="1280"
     inkscape:window-height="961"
     inkscape:window-x="-8"
     inkscape:window-y="-8"
     inkscape:window-maximized="1" />
  <metadata
     id="metadata7">
    <rdf:RDF>
      <cc:Work
         rdf:about="">
        <dc:format>image/svg+xml</dc:format>
        <dc:type
           rdf:resource="http://purl.org/dc/dcmitype/StillImage" />
        <dc:title></dc:title>
      </cc:Work>
    </rdf:RDF>
  </metadata>
  <g
     inkscape:label="Ebene 1"
     inkscape:groupmode="layer"
     id="layer1"
     transform="translate(-115.63265,164.20031)">
    <g
       id="g4117">
      <path
         sodipodi:nodetypes="ccccc"
         inkscape:connector-curvature="0"
         id="rect4099"
         d="m 246.42857,-9.0663911 c 51.4844,13.795203 99.88748,13.810393 151.42857,0 -14.09124,52.5892411 -15.4572,93.7415311 0,151.4285711 -52.45447,-14.05513 -96.23605,-14.78879 -151.42857,0 15.08048,-56.28112 15.10669,-95.04962 0,-151.4285711 z"
         style="fill:#000000;fill-opacity:1;stroke:none" />
      <rect
         rx="0"
         ry="0"
         y="54.147896"
         x="129.28571"
         height="25"
         width="393.57144"
         id="rect4113"
         style="fill:#000000;fill-opacity:1;stroke:none" />
      <rect
         transform="matrix(0,1,-1,0,0,0)"
         style="fill:#000000;fill-opacity:1;stroke:none"
         id="rect4115"
         width="393.57144"
         height="25"
         x="-130.13782"
         y="-338.57141"
         ry="0"
         rx="0" />
      <path
         sodipodi:type="arc"
         style="fill:#000000;fill-opacity:1;stroke:none"
         id="path4122"
         sodipodi:cx="128.57143"
         sodipodi:cy="60.933609"
         sodipodi:rx="12.857142"
         sodipodi:ry="12.857142"
         d="m 141.42857,60.933609 c 0,7.100804 -5.75634,12.857142 -12.85714,12.857142 -7.10081,0 -12.85715,-5.756338 -12.85715,-12.857142 0,-7.100804 5.75634,-12.857142 12.85715,-12.857142 7.1008,0 12.85714,5.756338 12.85714,12.857142 z"
         transform="matrix(1.2285714,0,0,1.1944445,-26.530612,-6.1339171)" />
      <path
         transform="matrix(1.2285714,0,0,1.1944445,360.61225,-6.1339171)"
         d="m 141.42857,60.933609 c 0,7.100804 -5.75634,12.857142 -12.85714,12.857142 -7.10081,0 -12.85715,-5.756338 -12.85715,-12.857142 0,-7.100804 5.75634,-12.857142 12.85715,-12.857142 7.1008,0 12.85714,5.756338 12.85714,12.857142 z"
         sodipodi:ry="12.857142"
         sodipodi:rx="12.857142"
         sodipodi:cy="60.933609"
         sodipodi:cx="128.57143"
         id="path4124"
         style="fill:#000000;fill-opacity:1;stroke:none"
         sodipodi:type="arc" />
      <path
         sodipodi:type="arc"
         style="fill:#000000;fill-opacity:1;stroke:none"
         id="path4126"
         sodipodi:cx="128.57143"
         sodipodi:cy="60.933609"
         sodipodi:rx="12.857142"
         sodipodi:ry="12.857142"
         d="m 141.42857,60.933609 c 0,7.100804 -5.75634,12.857142 -12.85714,12.857142 -7.10081,0 -12.85715,-5.756338 -12.85715,-12.857142 0,-7.100804 5.75634,-12.857142 12.85715,-12.857142 7.1008,0 12.85714,5.756338 12.85714,12.857142 z"
         transform="matrix(1.2285714,0,0,1.1944445,168.11223,188.72322)" />
      <path
         transform="matrix(1.2285714,0,0,1.1944445,168.11223,-198.41964)"
         d="m 141.42857,60.933609 c 0,7.100804 -5.75634,12.857142 -12.85714,12.857142 -7.10081,0 -12.85715,-5.756338 -12.85715,-12.857142 0,-7.100804 5.75634,-12.857142 12.85715,-12.857142 7.1008,0 12.85714,5.756338 12.85714,12.857142 z"
         sodipodi:ry="12.857142"
         sodipodi:rx="12.857142"
         sodipodi:cy="60.933609"
         sodipodi:cx="128.57143"
         id="path4128"
         style="fill:#000000;fill-opacity:1;stroke:none"
         sodipodi:type="arc" />
      <path
         sodipodi:type="star"
         style="fill:#000000;fill-rule:evenodd;stroke:#000000;stroke-width:1px;stroke-linecap:butt;stroke-linejoin:miter;stroke-opacity:1"
         id="path2992"
         sodipodi:sides="3"
         sodipodi:cx="210.66386"
         sodipodi:cy="53.446842"
         sodipodi:r1="54.48912"
         sodipodi:r2="27.24456"
         sodipodi:arg1="-1.5771657"
         sodipodi:arg2="-0.52996812"
         inkscape:flatsided="false"
         inkscape:rounded="0"
         inkscape:randomized="0"
         d="m 210.3168,-1.041173 23.8543,40.715731 23.8543,40.71573 -47.18801,0.300562 -47.188,0.300562 23.33371,-41.016293 z"
         transform="translate(115.23402,-162.16906)"
         inkscape:transform-center-x="-0.17352872"
         inkscape:transform-center-y="-13.471724" />
    </g>
  </g>
</svg>
