<?xml version="1.0" encoding="UTF-8" standalone="no"?>
<!-- Created with Inkscape (http://www.inkscape.org/) -->

<svg
   xmlns:dc="http://purl.org/dc/elements/1.1/"
   xmlns:cc="http://creativecommons.org/ns#"
   xmlns:rdf="http://www.w3.org/1999/02/22-rdf-syntax-ns#"
   xmlns:svg="http://www.w3.org/2000/svg"
   xmlns="http://www.w3.org/2000/svg"
   xmlns:xlink="http://www.w3.org/1999/xlink"
   xmlns:sodipodi="http://sodipodi.sourceforge.net/DTD/sodipodi-0.dtd"
   xmlns:inkscape="http://www.inkscape.org/namespaces/inkscape"
   width="302"
   height="302"
   id="svg4141"
   version="1.1"
   inkscape:version="0.48.2 r9819"
   sodipodi:docname="3m-toscale.svg">
  <defs
     id="defs4143" />
  <sodipodi:namedview
     id="base"
     pagecolor="#ffffff"
     bordercolor="#666666"
     borderopacity="1.0"
     inkscape:pageopacity="0.0"
     inkscape:pageshadow="2"
     inkscape:zoom="1.979899"
     inkscape:cx="143.91607"
     inkscape:cy="164.29213"
     inkscape:document-units="px"
     inkscape:current-layer="layer3"
     showgrid="false"
     fit-margin-top="0"
     fit-margin-left="0"
     fit-margin-right="0"
     fit-margin-bottom="0"
     inkscape:window-width="1280"
     inkscape:window-height="961"
     inkscape:window-x="-8"
     inkscape:window-y="-8"
     inkscape:window-maximized="1" />
  <metadata
     id="metadata4146">
    <rdf:RDF>
      <cc:Work
         rdf:about="">
        <dc:format>image/svg+xml</dc:format>
        <dc:type
           rdf:resource="http://purl.org/dc/dcmitype/StillImage" />
      </cc:Work>
    </rdf:RDF>
  </metadata>
  <g
     inkscape:groupmode="layer"
     id="layer3"
     inkscape:label="Rand">
    <rect
       transform="translate(0,-750.375)"
       style="fill:none;stroke:#000000;stroke-width:0.38953381999999998"
       id="rect4263"
       width="301.61044"
       height="301.61044"
       x="0.19476691"
       y="750.55695" />
  </g>
  <g
     inkscape:groupmode="layer"
     id="layer2"
     inkscape:label="Gitter">
    <g
       transform="translate(0,-750.375)"
       id="g4337"
       style="opacity:0.5">
      <path
         inkscape:connector-curvature="0"
         id="path4305"
         d="m 50.500391,750.3505 0,301.5262"
         style="fill:none;stroke:#000000;stroke-width:1.00099999999999990;stroke-linecap:butt;stroke-linejoin:miter;stroke-opacity:1;stroke-miterlimit:4;stroke-dasharray:1.00099999999999990, 6.00600000000000020;stroke-dashoffset:0" />
      <use
         height="302"
         width="302"
         transform="translate(50,0)"
         id="use4307"
         xlink:href="#path4305"
         y="0"
         x="0" />
      <use
         height="302"
         width="302"
         transform="translate(50,0)"
         id="use4309"
         xlink:href="#use4307"
         y="0"
         x="0" />
      <use
         height="302"
         width="302"
         transform="translate(50,0)"
         id="use4311"
         xlink:href="#use4309"
         y="0"
         x="0" />
      <use
         height="302"
         width="302"
         transform="translate(50,0)"
         id="use4313"
         xlink:href="#use4311"
         y="0"
         x="0" />
    </g>
    <use
       x="0"
       y="0"
       xlink:href="#g4337"
       id="use5118"
       transform="matrix(0,1,-1,0,301.23899,0.238209)"
       width="302"
       height="302" />
  </g>
  <g
     inkscape:label="Kopter"
     inkscape:groupmode="layer"
     id="layer1"
     transform="translate(0,-750.375)">
    <g
       id="g4231"
       transform="matrix(0.02149332,0,0,0.02149332,116.24681,829.24534)">
      <path
         style="fill:#000000;fill-opacity:1;stroke:none"
         d="m 246.42857,-9.0663911 c 51.4844,13.795203 99.88748,13.810393 151.42857,0 -14.09124,52.5892411 -15.4572,93.7415311 0,151.4285711 -52.45447,-14.05513 -96.23605,-14.78879 -151.42857,0 15.08048,-56.28112 15.10669,-95.04962 0,-151.4285711 z"
         id="path4233"
         inkscape:connector-curvature="0"
         sodipodi:nodetypes="ccccc" />
      <rect
         style="fill:#000000;fill-opacity:1;stroke:none"
         id="rect4235"
         width="393.57144"
         height="25"
         x="129.28571"
         y="54.147896"
         ry="0"
         rx="0" />
      <rect
         rx="0"
         ry="0"
         y="-338.57141"
         x="-130.13782"
         height="25"
         width="393.57144"
         id="rect4237"
         style="fill:#000000;fill-opacity:1;stroke:none"
         transform="matrix(0,1,-1,0,0,0)" />
      <path
         transform="matrix(1.2285714,0,0,1.1944445,-26.530612,-6.1339171)"
         d="m 141.42857,60.933609 c 0,7.100804 -5.75634,12.857142 -12.85714,12.857142 -7.10081,0 -12.85715,-5.756338 -12.85715,-12.857142 0,-7.100804 5.75634,-12.857142 12.85715,-12.857142 7.1008,0 12.85714,5.756338 12.85714,12.857142 z"
         sodipodi:ry="12.857142"
         sodipodi:rx="12.857142"
         sodipodi:cy="60.933609"
         sodipodi:cx="128.57143"
         id="path4239"
         style="fill:#000000;fill-opacity:1;stroke:none"
         sodipodi:type="arc" />
      <path
         sodipodi:type="arc"
         style="fill:#000000;fill-opacity:1;stroke:none"
         id="path4241"
         sodipodi:cx="128.57143"
         sodipodi:cy="60.933609"
         sodipodi:rx="12.857142"
         sodipodi:ry="12.857142"
         d="m 141.42857,60.933609 c 0,7.100804 -5.75634,12.857142 -12.85714,12.857142 -7.10081,0 -12.85715,-5.756338 -12.85715,-12.857142 0,-7.100804 5.75634,-12.857142 12.85715,-12.857142 7.1008,0 12.85714,5.756338 12.85714,12.857142 z"
         transform="matrix(1.2285714,0,0,1.1944445,360.61225,-6.1339171)" />
      <path
         transform="matrix(1.2285714,0,0,1.1944445,168.11223,188.72322)"
         d="m 141.42857,60.933609 c 0,7.100804 -5.75634,12.857142 -12.85714,12.857142 -7.10081,0 -12.85715,-5.756338 -12.85715,-12.857142 0,-7.100804 5.75634,-12.857142 12.85715,-12.857142 7.1008,0 12.85714,5.756338 12.85714,12.857142 z"
         sodipodi:ry="12.857142"
         sodipodi:rx="12.857142"
         sodipodi:cy="60.933609"
         sodipodi:cx="128.57143"
         id="path4243"
         style="fill:#000000;fill-opacity:1;stroke:none"
         sodipodi:type="arc" />
      <path
         sodipodi:type="arc"
         style="fill:#000000;fill-opacity:1;stroke:none"
         id="path4245"
         sodipodi:cx="128.57143"
         sodipodi:cy="60.933609"
         sodipodi:rx="12.857142"
         sodipodi:ry="12.857142"
         d="m 141.42857,60.933609 c 0,7.100804 -5.75634,12.857142 -12.85714,12.857142 -7.10081,0 -12.85715,-5.756338 -12.85715,-12.857142 0,-7.100804 5.75634,-12.857142 12.85715,-12.857142 7.1008,0 12.85714,5.756338 12.85714,12.857142 z"
         transform="matrix(1.2285714,0,0,1.1944445,168.11223,-198.41964)" />
    </g>
    <g
       transform="matrix(0.02149332,0,0,0.02149332,85.437166,894.40019)"
       id="g4265">
      <path
         sodipodi:nodetypes="ccccc"
         inkscape:connector-curvature="0"
         id="path4267"
         d="m 246.42857,-9.0663911 c 51.4844,13.795203 99.88748,13.810393 151.42857,0 -14.09124,52.5892411 -15.4572,93.7415311 0,151.4285711 -52.45447,-14.05513 -96.23605,-14.78879 -151.42857,0 15.08048,-56.28112 15.10669,-95.04962 0,-151.4285711 z"
         style="fill:#000000;fill-opacity:1;stroke:none" />
      <rect
         rx="0"
         ry="0"
         y="54.147896"
         x="129.28571"
         height="25"
         width="393.57144"
         id="rect4269"
         style="fill:#000000;fill-opacity:1;stroke:none" />
      <rect
         transform="matrix(0,1,-1,0,0,0)"
         style="fill:#000000;fill-opacity:1;stroke:none"
         id="rect4271"
         width="393.57144"
         height="25"
         x="-130.13782"
         y="-338.57141"
         ry="0"
         rx="0" />
      <path
         sodipodi:type="arc"
         style="fill:#000000;fill-opacity:1;stroke:none"
         id="path4273"
         sodipodi:cx="128.57143"
         sodipodi:cy="60.933609"
         sodipodi:rx="12.857142"
         sodipodi:ry="12.857142"
         d="m 141.42857,60.933609 c 0,7.100804 -5.75634,12.857142 -12.85714,12.857142 -7.10081,0 -12.85715,-5.756338 -12.85715,-12.857142 0,-7.100804 5.75634,-12.857142 12.85715,-12.857142 7.1008,0 12.85714,5.756338 12.85714,12.857142 z"
         transform="matrix(1.2285714,0,0,1.1944445,-26.530612,-6.1339171)" />
      <path
         transform="matrix(1.2285714,0,0,1.1944445,360.61225,-6.1339171)"
         d="m 141.42857,60.933609 c 0,7.100804 -5.75634,12.857142 -12.85714,12.857142 -7.10081,0 -12.85715,-5.756338 -12.85715,-12.857142 0,-7.100804 5.75634,-12.857142 12.85715,-12.857142 7.1008,0 12.85714,5.756338 12.85714,12.857142 z"
         sodipodi:ry="12.857142"
         sodipodi:rx="12.857142"
         sodipodi:cy="60.933609"
         sodipodi:cx="128.57143"
         id="path4275"
         style="fill:#000000;fill-opacity:1;stroke:none"
         sodipodi:type="arc" />
      <path
         sodipodi:type="arc"
         style="fill:#000000;fill-opacity:1;stroke:none"
         id="path4277"
         sodipodi:cx="128.57143"
         sodipodi:cy="60.933609"
         sodipodi:rx="12.857142"
         sodipodi:ry="12.857142"
         d="m 141.42857,60.933609 c 0,7.100804 -5.75634,12.857142 -12.85714,12.857142 -7.10081,0 -12.85715,-5.756338 -12.85715,-12.857142 0,-7.100804 5.75634,-12.857142 12.85715,-12.857142 7.1008,0 12.85714,5.756338 12.85714,12.857142 z"
         transform="matrix(1.2285714,0,0,1.1944445,168.11223,188.72322)" />
      <path
         transform="matrix(1.2285714,0,0,1.1944445,168.11223,-198.41964)"
         d="m 141.42857,60.933609 c 0,7.100804 -5.75634,12.857142 -12.85714,12.857142 -7.10081,0 -12.85715,-5.756338 -12.85715,-12.857142 0,-7.100804 5.75634,-12.857142 12.85715,-12.857142 7.1008,0 12.85714,5.756338 12.85714,12.857142 z"
         sodipodi:ry="12.857142"
         sodipodi:rx="12.857142"
         sodipodi:cy="60.933609"
         sodipodi:cx="128.57143"
         id="path4279"
         style="fill:#000000;fill-opacity:1;stroke:none"
         sodipodi:type="arc" />
    </g>
    <g
       id="g4281"
       transform="matrix(0.02149332,0,0,0.02149332,166.24937,886.31896)">
      <path
         style="fill:#000000;fill-opacity:1;stroke:none"
         d="m 246.42857,-9.0663911 c 51.4844,13.795203 99.88748,13.810393 151.42857,0 -14.09124,52.5892411 -15.4572,93.7415311 0,151.4285711 -52.45447,-14.05513 -96.23605,-14.78879 -151.42857,0 15.08048,-56.28112 15.10669,-95.04962 0,-151.4285711 z"
         id="path4283"
         inkscape:connector-curvature="0"
         sodipodi:nodetypes="ccccc" />
      <rect
         style="fill:#000000;fill-opacity:1;stroke:none"
         id="rect4285"
         width="393.57144"
         height="25"
         x="129.28571"
         y="54.147896"
         ry="0"
         rx="0" />
      <rect
         rx="0"
         ry="0"
         y="-338.57141"
         x="-130.13782"
         height="25"
         width="393.57144"
         id="rect4287"
         style="fill:#000000;fill-opacity:1;stroke:none"
         transform="matrix(0,1,-1,0,0,0)" />
      <path
         transform="matrix(1.2285714,0,0,1.1944445,-26.530612,-6.1339171)"
         d="m 141.42857,60.933609 c 0,7.100804 -5.75634,12.857142 -12.85714,12.857142 -7.10081,0 -12.85715,-5.756338 -12.85715,-12.857142 0,-7.100804 5.75634,-12.857142 12.85715,-12.857142 7.1008,0 12.85714,5.756338 12.85714,12.857142 z"
         sodipodi:ry="12.857142"
         sodipodi:rx="12.857142"
         sodipodi:cy="60.933609"
         sodipodi:cx="128.57143"
         id="path4289"
         style="fill:#000000;fill-opacity:1;stroke:none"
         sodipodi:type="arc" />
      <path
         sodipodi:type="arc"
         style="fill:#000000;fill-opacity:1;stroke:none"
         id="path4291"
         sodipodi:cx="128.57143"
         sodipodi:cy="60.933609"
         sodipodi:rx="12.857142"
         sodipodi:ry="12.857142"
         d="m 141.42857,60.933609 c 0,7.100804 -5.75634,12.857142 -12.85714,12.857142 -7.10081,0 -12.85715,-5.756338 -12.85715,-12.857142 0,-7.100804 5.75634,-12.857142 12.85715,-12.857142 7.1008,0 12.85714,5.756338 12.85714,12.857142 z"
         transform="matrix(1.2285714,0,0,1.1944445,360.61225,-6.1339171)" />
      <path
         transform="matrix(1.2285714,0,0,1.1944445,168.11223,188.72322)"
         d="m 141.42857,60.933609 c 0,7.100804 -5.75634,12.857142 -12.85714,12.857142 -7.10081,0 -12.85715,-5.756338 -12.85715,-12.857142 0,-7.100804 5.75634,-12.857142 12.85715,-12.857142 7.1008,0 12.85714,5.756338 12.85714,12.857142 z"
         sodipodi:ry="12.857142"
         sodipodi:rx="12.857142"
         sodipodi:cy="60.933609"
         sodipodi:cx="128.57143"
         id="path4293"
         style="fill:#000000;fill-opacity:1;stroke:none"
         sodipodi:type="arc" />
      <path
         sodipodi:type="arc"
         style="fill:#000000;fill-opacity:1;stroke:none"
         id="path4295"
         sodipodi:cx="128.57143"
         sodipodi:cy="60.933609"
         sodipodi:rx="12.857142"
         sodipodi:ry="12.857142"
         d="m 141.42857,60.933609 c 0,7.100804 -5.75634,12.857142 -12.85714,12.857142 -7.10081,0 -12.85715,-5.756338 -12.85715,-12.857142 0,-7.100804 5.75634,-12.857142 12.85715,-12.857142 7.1008,0 12.85714,5.756338 12.85714,12.857142 z"
         transform="matrix(1.2285714,0,0,1.1944445,168.11223,-198.41964)" />
    </g>
  </g>
</svg>
