<?xml version="1.0" encoding="UTF-8" standalone="no"?>
<!-- Created with Inkscape (http://www.inkscape.org/) -->

<svg
   xmlns:dc="http://purl.org/dc/elements/1.1/"
   xmlns:cc="http://creativecommons.org/ns#"
   xmlns:rdf="http://www.w3.org/1999/02/22-rdf-syntax-ns#"
   xmlns:svg="http://www.w3.org/2000/svg"
   xmlns="http://www.w3.org/2000/svg"
   xmlns:xlink="http://www.w3.org/1999/xlink"
   xmlns:sodipodi="http://sodipodi.sourceforge.net/DTD/sodipodi-0.dtd"
   xmlns:inkscape="http://www.inkscape.org/namespaces/inkscape"
   width="302"
   height="302"
   id="svg4141"
   version="1.1"
   inkscape:version="0.48.2 r9819"
   sodipodi:docname="hover.svg">
  <defs
     id="defs4143" />
  <sodipodi:namedview
     id="base"
     pagecolor="#ffffff"
     bordercolor="#666666"
     borderopacity="1.0"
     inkscape:pageopacity="0.0"
     inkscape:pageshadow="2"
     inkscape:zoom="1.4"
     inkscape:cx="37.347228"
     inkscape:cy="229.48659"
     inkscape:document-units="px"
     inkscape:current-layer="layer4"
     showgrid="false"
     fit-margin-top="0"
     fit-margin-left="0"
     fit-margin-right="0"
     fit-margin-bottom="0"
     inkscape:window-width="1280"
     inkscape:window-height="961"
     inkscape:window-x="-8"
     inkscape:window-y="-8"
     inkscape:window-maximized="1" />
  <metadata
     id="metadata4146">
    <rdf:RDF>
      <cc:Work
         rdf:about="">
        <dc:format>image/svg+xml</dc:format>
        <dc:type
           rdf:resource="http://purl.org/dc/dcmitype/StillImage" />
        <dc:title></dc:title>
      </cc:Work>
    </rdf:RDF>
  </metadata>
  <g
     inkscape:groupmode="layer"
     id="layer3"
     inkscape:label="Rand"
     sodipodi:insensitive="true">
    <rect
       transform="translate(0,-750.375)"
       style="fill:none;stroke:#000000;stroke-width:0.38953382"
       id="rect4263"
       width="301.61044"
       height="301.61044"
       x="0.19476691"
       y="750.55695" />
  </g>
  <g
     inkscape:groupmode="layer"
     id="layer2"
     inkscape:label="Gitter"
     sodipodi:insensitive="true">
    <g
       transform="translate(0,-750.375)"
       id="g4337"
       style="opacity:0.5">
      <path
         inkscape:connector-curvature="0"
         id="path4305"
         d="m 50.500391,750.3505 0,301.5262"
         style="fill:none;stroke:#000000;stroke-width:1.00100005;stroke-linecap:butt;stroke-linejoin:miter;stroke-miterlimit:4;stroke-opacity:1;stroke-dasharray:1.001, 6.006;stroke-dashoffset:0" />
      <use
         height="302"
         width="302"
         transform="translate(50,0)"
         id="use4307"
         xlink:href="#path4305"
         y="0"
         x="0" />
      <use
         height="302"
         width="302"
         transform="translate(50,0)"
         id="use4309"
         xlink:href="#use4307"
         y="0"
         x="0" />
      <use
         height="302"
         width="302"
         transform="translate(50,0)"
         id="use4311"
         xlink:href="#use4309"
         y="0"
         x="0" />
      <use
         height="302"
         width="302"
         transform="translate(50,0)"
         id="use4313"
         xlink:href="#use4311"
         y="0"
         x="0" />
    </g>
    <use
       x="0"
       y="0"
       xlink:href="#g4337"
       id="use5118"
       transform="matrix(0,1,-1,0,301.23899,0.238209)"
       width="302"
       height="302" />
  </g>
  <g
     inkscape:groupmode="layer"
     id="layer4"
     inkscape:label="Info">
    <path
       style="fill:none;stroke:#ff0000;stroke-width:2;stroke-linecap:butt;stroke-linejoin:miter;stroke-miterlimit:4;stroke-opacity:1;stroke-dasharray:2, 4;stroke-dashoffset:0"
       d="m 0.3788072,142.05992 94.5958368,0 0,159.68754"
       id="path3016"
       inkscape:connector-curvature="0"
       sodipodi:nodetypes="ccc" />
    <text
       xml:space="preserve"
       style="font-size:40px;font-style:normal;font-weight:normal;line-height:125%;letter-spacing:0px;word-spacing:0px;fill:#ff0000;fill-opacity:1;stroke:none;font-family:Sans"
       x="39.904266"
       y="137.34512"
       id="text3788"
       sodipodi:linespacing="125%"><tspan
         sodipodi:role="line"
         id="tspan3790"
         x="39.904266"
         y="137.34512"
         style="font-size:14px;fill:#ff0000">98</tspan></text>
    <text
       sodipodi:linespacing="125%"
       id="text3792"
       y="226.84607"
       x="99.26088"
       style="font-size:40px;font-style:normal;font-weight:normal;line-height:125%;letter-spacing:0px;word-spacing:0px;fill:#ff0000;fill-opacity:1;stroke:none;font-family:Sans"
       xml:space="preserve"><tspan
         style="font-size:14px;fill:#ff0000"
         y="226.84607"
         x="99.26088"
         id="tspan3794"
         sodipodi:role="line">163</tspan></text>
    <text
       xml:space="preserve"
       style="font-size:40px;font-style:normal;font-weight:normal;line-height:125%;letter-spacing:0px;word-spacing:0px;fill:#ff0000;fill-opacity:1;stroke:none;font-family:Sans"
       x="65.420776"
       y="156.49278"
       id="text3796"
       sodipodi:linespacing="125%"><tspan
         sodipodi:role="line"
         id="tspan3798"
         x="65.420776"
         y="156.49278"
         style="font-size:14px;fill:#ff0000">(55)</tspan></text>
    <path
       style="fill:none;stroke:#0000ff;stroke-width:1px;stroke-linecap:butt;stroke-linejoin:miter;stroke-opacity:1"
       d="M 94.508928,142.22321 126.65179,79.812502"
       id="path3800"
       inkscape:connector-curvature="0"
       sodipodi:nodetypes="cc" />
    <path
       style="fill:none;stroke:#0000ff;stroke-width:1px;stroke-linecap:butt;stroke-linejoin:miter;stroke-opacity:1"
       d="M 94.598214,142.04464 172.5,124.5"
       id="path3802"
       inkscape:connector-curvature="0"
       sodipodi:nodetypes="cc" />
    <text
       sodipodi:linespacing="125%"
       id="text3804"
       y="109.84512"
       x="85.18998"
       style="font-size:40px;font-style:normal;font-weight:normal;line-height:125%;letter-spacing:0px;word-spacing:0px;fill:#0000ff;fill-opacity:1;stroke:none;font-family:Sans"
       xml:space="preserve"><tspan
         style="font-size:14px;fill:#0000ff"
         y="109.84512"
         x="85.18998"
         sodipodi:role="line"
         id="tspan3812">88↑</tspan></text>
    <text
       xml:space="preserve"
       style="font-size:40px;font-style:normal;font-weight:normal;line-height:125%;letter-spacing:0px;word-spacing:0px;fill:#0000ff;fill-opacity:1;stroke:none;font-family:Sans"
       x="130.18999"
       y="147.34512"
       id="text3816"
       sodipodi:linespacing="125%"><tspan
         id="tspan3818"
         sodipodi:role="line"
         x="130.18999"
         y="147.34512"
         style="font-size:14px;fill:#0000ff">97↓</tspan></text>
  </g>
  <g
     inkscape:label="Kopter"
     inkscape:groupmode="layer"
     id="layer1"
     transform="translate(0,-750.375)"
     style="display:inline">
    <g
       transform="matrix(0.0391206,0.01781659,-0.01689799,0.0371036,83.096311,884.24831)"
       id="g4117">
      <path
         sodipodi:nodetypes="ccccc"
         inkscape:connector-curvature="0"
         id="rect4099"
         d="m 246.42857,-9.0663911 c 51.4844,13.795203 99.88748,13.810393 151.42857,0 -14.09124,52.5892411 -15.4572,93.7415311 0,151.4285711 -52.45447,-14.05513 -96.23605,-14.78879 -151.42857,0 15.08048,-56.28112 15.10669,-95.04962 0,-151.4285711 z"
         style="fill:#000000;fill-opacity:1;stroke:none" />
      <rect
         rx="0"
         ry="0"
         y="54.147896"
         x="129.28571"
         height="25"
         width="393.57144"
         id="rect4113"
         style="fill:#000000;fill-opacity:1;stroke:none" />
      <rect
         transform="matrix(0,1,-1,0,0,0)"
         style="fill:#000000;fill-opacity:1;stroke:none"
         id="rect4115"
         width="393.57144"
         height="25"
         x="-130.13782"
         y="-338.57141"
         ry="0"
         rx="0" />
      <path
         sodipodi:type="arc"
         style="fill:#000000;fill-opacity:1;stroke:none"
         id="path4122"
         sodipodi:cx="128.57143"
         sodipodi:cy="60.933609"
         sodipodi:rx="12.857142"
         sodipodi:ry="12.857142"
         d="m 141.42857,60.933609 c 0,7.100804 -5.75634,12.857142 -12.85714,12.857142 -7.10081,0 -12.85715,-5.756338 -12.85715,-12.857142 0,-7.100804 5.75634,-12.857142 12.85715,-12.857142 7.1008,0 12.85714,5.756338 12.85714,12.857142 z"
         transform="matrix(1.2285714,0,0,1.1944445,-26.530612,-6.1339171)" />
      <path
         transform="matrix(1.2285714,0,0,1.1944445,360.61225,-6.1339171)"
         d="m 141.42857,60.933609 c 0,7.100804 -5.75634,12.857142 -12.85714,12.857142 -7.10081,0 -12.85715,-5.756338 -12.85715,-12.857142 0,-7.100804 5.75634,-12.857142 12.85715,-12.857142 7.1008,0 12.85714,5.756338 12.85714,12.857142 z"
         sodipodi:ry="12.857142"
         sodipodi:rx="12.857142"
         sodipodi:cy="60.933609"
         sodipodi:cx="128.57143"
         id="path4124"
         style="fill:#000000;fill-opacity:1;stroke:none"
         sodipodi:type="arc" />
      <path
         sodipodi:type="arc"
         style="fill:#000000;fill-opacity:1;stroke:none"
         id="path4126"
         sodipodi:cx="128.57143"
         sodipodi:cy="60.933609"
         sodipodi:rx="12.857142"
         sodipodi:ry="12.857142"
         d="m 141.42857,60.933609 c 0,7.100804 -5.75634,12.857142 -12.85714,12.857142 -7.10081,0 -12.85715,-5.756338 -12.85715,-12.857142 0,-7.100804 5.75634,-12.857142 12.85715,-12.857142 7.1008,0 12.85714,5.756338 12.85714,12.857142 z"
         transform="matrix(1.2285714,0,0,1.1944445,168.11223,188.72322)" />
      <path
         transform="matrix(1.2285714,0,0,1.1944445,168.11223,-198.41964)"
         d="m 141.42857,60.933609 c 0,7.100804 -5.75634,12.857142 -12.85714,12.857142 -7.10081,0 -12.85715,-5.756338 -12.85715,-12.857142 0,-7.100804 5.75634,-12.857142 12.85715,-12.857142 7.1008,0 12.85714,5.756338 12.85714,12.857142 z"
         sodipodi:ry="12.857142"
         sodipodi:rx="12.857142"
         sodipodi:cy="60.933609"
         sodipodi:cx="128.57143"
         id="path4128"
         style="fill:#000000;fill-opacity:1;stroke:none"
         sodipodi:type="arc" />
      <path
         sodipodi:type="star"
         style="fill:#000000;fill-rule:evenodd;stroke:#000000;stroke-width:1px;stroke-linecap:butt;stroke-linejoin:miter;stroke-opacity:1"
         id="path2992"
         sodipodi:sides="3"
         sodipodi:cx="210.66386"
         sodipodi:cy="53.446842"
         sodipodi:r1="54.48912"
         sodipodi:r2="27.24456"
         sodipodi:arg1="-1.5771657"
         sodipodi:arg2="-0.52996812"
         inkscape:flatsided="false"
         inkscape:rounded="0"
         inkscape:randomized="0"
         d="m 210.3168,-1.041173 23.8543,40.715731 23.8543,40.71573 -47.18801,0.300562 -47.188,0.300562 23.33371,-41.016293 z"
         transform="translate(115.23402,-162.16906)"
         inkscape:transform-center-x="-0.17352872"
         inkscape:transform-center-y="-13.471724" />
    </g>
    <g
       id="g3070"
       transform="matrix(-0.02805403,0.03257029,-0.03089101,-0.0266076,137.59863,821.63448)">
      <path
         style="fill:#000000;fill-opacity:1;stroke:none"
         d="m 246.42857,-9.0663911 c 51.4844,13.795203 99.88748,13.810393 151.42857,0 -14.09124,52.5892411 -15.4572,93.7415311 0,151.4285711 -52.45447,-14.05513 -96.23605,-14.78879 -151.42857,0 15.08048,-56.28112 15.10669,-95.04962 0,-151.4285711 z"
         id="path3072"
         inkscape:connector-curvature="0"
         sodipodi:nodetypes="ccccc" />
      <rect
         style="fill:#000000;fill-opacity:1;stroke:none"
         id="rect3074"
         width="393.57144"
         height="25"
         x="129.28571"
         y="54.147896"
         ry="0"
         rx="0" />
      <rect
         rx="0"
         ry="0"
         y="-338.57141"
         x="-130.13782"
         height="25"
         width="393.57144"
         id="rect3076"
         style="fill:#000000;fill-opacity:1;stroke:none"
         transform="matrix(0,1,-1,0,0,0)" />
      <path
         transform="matrix(1.2285714,0,0,1.1944445,-26.530612,-6.1339171)"
         d="m 141.42857,60.933609 c 0,7.100804 -5.75634,12.857142 -12.85714,12.857142 -7.10081,0 -12.85715,-5.756338 -12.85715,-12.857142 0,-7.100804 5.75634,-12.857142 12.85715,-12.857142 7.1008,0 12.85714,5.756338 12.85714,12.857142 z"
         sodipodi:ry="12.857142"
         sodipodi:rx="12.857142"
         sodipodi:cy="60.933609"
         sodipodi:cx="128.57143"
         id="path3078"
         style="fill:#000000;fill-opacity:1;stroke:none"
         sodipodi:type="arc" />
      <path
         sodipodi:type="arc"
         style="fill:#000000;fill-opacity:1;stroke:none"
         id="path3080"
         sodipodi:cx="128.57143"
         sodipodi:cy="60.933609"
         sodipodi:rx="12.857142"
         sodipodi:ry="12.857142"
         d="m 141.42857,60.933609 c 0,7.100804 -5.75634,12.857142 -12.85714,12.857142 -7.10081,0 -12.85715,-5.756338 -12.85715,-12.857142 0,-7.100804 5.75634,-12.857142 12.85715,-12.857142 7.1008,0 12.85714,5.756338 12.85714,12.857142 z"
         transform="matrix(1.2285714,0,0,1.1944445,360.61225,-6.1339171)" />
      <path
         transform="matrix(1.2285714,0,0,1.1944445,168.11223,188.72322)"
         d="m 141.42857,60.933609 c 0,7.100804 -5.75634,12.857142 -12.85714,12.857142 -7.10081,0 -12.85715,-5.756338 -12.85715,-12.857142 0,-7.100804 5.75634,-12.857142 12.85715,-12.857142 7.1008,0 12.85714,5.756338 12.85714,12.857142 z"
         sodipodi:ry="12.857142"
         sodipodi:rx="12.857142"
         sodipodi:cy="60.933609"
         sodipodi:cx="128.57143"
         id="path3082"
         style="fill:#000000;fill-opacity:1;stroke:none"
         sodipodi:type="arc" />
      <path
         sodipodi:type="arc"
         style="fill:#000000;fill-opacity:1;stroke:none"
         id="path3084"
         sodipodi:cx="128.57143"
         sodipodi:cy="60.933609"
         sodipodi:rx="12.857142"
         sodipodi:ry="12.857142"
         d="m 141.42857,60.933609 c 0,7.100804 -5.75634,12.857142 -12.85714,12.857142 -7.10081,0 -12.85715,-5.756338 -12.85715,-12.857142 0,-7.100804 5.75634,-12.857142 12.85715,-12.857142 7.1008,0 12.85714,5.756338 12.85714,12.857142 z"
         transform="matrix(1.2285714,0,0,1.1944445,168.11223,-198.41964)" />
      <path
         inkscape:transform-center-y="-13.471724"
         inkscape:transform-center-x="-0.17352872"
         transform="translate(115.23402,-162.16906)"
         d="m 210.3168,-1.041173 23.8543,40.715731 23.8543,40.71573 -47.18801,0.300562 -47.188,0.300562 23.33371,-41.016293 z"
         inkscape:randomized="0"
         inkscape:rounded="0"
         inkscape:flatsided="false"
         sodipodi:arg2="-0.52996812"
         sodipodi:arg1="-1.5771657"
         sodipodi:r2="27.24456"
         sodipodi:r1="54.48912"
         sodipodi:cy="53.446842"
         sodipodi:cx="210.66386"
         sodipodi:sides="3"
         id="path3086"
         style="fill:#000000;fill-rule:evenodd;stroke:#000000;stroke-width:1px;stroke-linecap:butt;stroke-linejoin:miter;stroke-opacity:1"
         sodipodi:type="star" />
    </g>
    <g
       transform="matrix(-0.03512253,-0.02478428,0.02350643,-0.03331166,182.43523,884.94477)"
       id="g3124">
      <path
         sodipodi:nodetypes="ccccc"
         inkscape:connector-curvature="0"
         id="path3126"
         d="m 246.42857,-9.0663911 c 51.4844,13.795203 99.88748,13.810393 151.42857,0 -14.09124,52.5892411 -15.4572,93.7415311 0,151.4285711 -52.45447,-14.05513 -96.23605,-14.78879 -151.42857,0 15.08048,-56.28112 15.10669,-95.04962 0,-151.4285711 z"
         style="fill:#000000;fill-opacity:1;stroke:none" />
      <rect
         rx="0"
         ry="0"
         y="54.147896"
         x="129.28571"
         height="25"
         width="393.57144"
         id="rect3128"
         style="fill:#000000;fill-opacity:1;stroke:none" />
      <rect
         transform="matrix(0,1,-1,0,0,0)"
         style="fill:#000000;fill-opacity:1;stroke:none"
         id="rect3130"
         width="393.57144"
         height="25"
         x="-130.13782"
         y="-338.57141"
         ry="0"
         rx="0" />
      <path
         sodipodi:type="arc"
         style="fill:#000000;fill-opacity:1;stroke:none"
         id="path3132"
         sodipodi:cx="128.57143"
         sodipodi:cy="60.933609"
         sodipodi:rx="12.857142"
         sodipodi:ry="12.857142"
         d="m 141.42857,60.933609 c 0,7.100804 -5.75634,12.857142 -12.85714,12.857142 -7.10081,0 -12.85715,-5.756338 -12.85715,-12.857142 0,-7.100804 5.75634,-12.857142 12.85715,-12.857142 7.1008,0 12.85714,5.756338 12.85714,12.857142 z"
         transform="matrix(1.2285714,0,0,1.1944445,-26.530612,-6.1339171)" />
      <path
         transform="matrix(1.2285714,0,0,1.1944445,360.61225,-6.1339171)"
         d="m 141.42857,60.933609 c 0,7.100804 -5.75634,12.857142 -12.85714,12.857142 -7.10081,0 -12.85715,-5.756338 -12.85715,-12.857142 0,-7.100804 5.75634,-12.857142 12.85715,-12.857142 7.1008,0 12.85714,5.756338 12.85714,12.857142 z"
         sodipodi:ry="12.857142"
         sodipodi:rx="12.857142"
         sodipodi:cy="60.933609"
         sodipodi:cx="128.57143"
         id="path3134"
         style="fill:#000000;fill-opacity:1;stroke:none"
         sodipodi:type="arc" />
      <path
         sodipodi:type="arc"
         style="fill:#000000;fill-opacity:1;stroke:none"
         id="path3136"
         sodipodi:cx="128.57143"
         sodipodi:cy="60.933609"
         sodipodi:rx="12.857142"
         sodipodi:ry="12.857142"
         d="m 141.42857,60.933609 c 0,7.100804 -5.75634,12.857142 -12.85714,12.857142 -7.10081,0 -12.85715,-5.756338 -12.85715,-12.857142 0,-7.100804 5.75634,-12.857142 12.85715,-12.857142 7.1008,0 12.85714,5.756338 12.85714,12.857142 z"
         transform="matrix(1.2285714,0,0,1.1944445,168.11223,188.72322)" />
      <path
         transform="matrix(1.2285714,0,0,1.1944445,168.11223,-198.41964)"
         d="m 141.42857,60.933609 c 0,7.100804 -5.75634,12.857142 -12.85714,12.857142 -7.10081,0 -12.85715,-5.756338 -12.85715,-12.857142 0,-7.100804 5.75634,-12.857142 12.85715,-12.857142 7.1008,0 12.85714,5.756338 12.85714,12.857142 z"
         sodipodi:ry="12.857142"
         sodipodi:rx="12.857142"
         sodipodi:cy="60.933609"
         sodipodi:cx="128.57143"
         id="path3138"
         style="fill:#000000;fill-opacity:1;stroke:none"
         sodipodi:type="arc" />
      <path
         sodipodi:type="star"
         style="fill:#000000;fill-rule:evenodd;stroke:#000000;stroke-width:1px;stroke-linecap:butt;stroke-linejoin:miter;stroke-opacity:1"
         id="path3140"
         sodipodi:sides="3"
         sodipodi:cx="210.66386"
         sodipodi:cy="53.446842"
         sodipodi:r1="54.48912"
         sodipodi:r2="27.24456"
         sodipodi:arg1="-1.5771657"
         sodipodi:arg2="-0.52996812"
         inkscape:flatsided="false"
         inkscape:rounded="0"
         inkscape:randomized="0"
         d="m 210.3168,-1.041173 23.8543,40.715731 23.8543,40.71573 -47.18801,0.300562 -47.188,0.300562 23.33371,-41.016293 z"
         transform="translate(115.23402,-162.16906)"
         inkscape:transform-center-x="-0.17352872"
         inkscape:transform-center-y="-13.471724" />
    </g>
  </g>
</svg>
